<?xml version="1.0" standalone="no"?>
<!DOCTYPE svg PUBLIC "-//W3C//DTD SVG 20010904//EN"
 "http://www.w3.org/TR/2001/REC-SVG-20010904/DTD/svg10.dtd">
<svg version="1.0" xmlns="http://www.w3.org/2000/svg"
 width="695.000000pt" height="383.000000pt" viewBox="0 0 695.000000 383.000000"
 preserveAspectRatio="xMidYMid meet">

<g transform="translate(0.000000,383.000000) scale(0.100000,-0.100000)"
fill="#000000" stroke="none">
<path d="M623 3619 c-40 -12 -49 -27 -83 -149 -14 -53 -35 -106 -46 -117 -10
-11 -36 -39 -58 -62 -30 -32 -37 -46 -32 -66 8 -30 45 -51 109 -60 l47 -7 -5
-87 c-6 -108 -14 -143 -33 -157 -13 -9 -15 -35 -13 -148 1 -85 7 -151 16 -175
7 -22 11 -42 8 -45 -4 -3 1 -6 9 -6 10 0 16 -10 16 -27 5 -212 13 -358 20
-362 4 -3 7 -23 7 -43 -1 -21 2 -38 6 -38 4 0 5 -9 2 -20 -3 -11 -12 -20 -19
-20 -11 0 -14 -22 -15 -97 -1 -139 -6 -220 -14 -233 -4 -6 -1 -18 6 -26 15
-18 16 -347 2 -351 -4 -2 -8 -29 -8 -61 0 -31 -2 -103 -5 -160 -3 -56 -2 -102
1 -102 4 0 7 -11 7 -25 0 -14 -4 -25 -9 -25 -5 0 -9 -24 -8 -52 0 -29 0 -111
0 -183 0 -71 1 -162 2 -202 1 -39 -1 -66 -5 -60 -5 7 -8 0 -8 -15 0 -41 -33
-58 -111 -58 -36 0 -94 -3 -128 -6 -55 -6 -62 -9 -59 -28 2 -12 13 -23 28 -27
l25 -7 -25 -2 c-16 -1 -19 -4 -10 -7 8 -3 22 -11 30 -18 9 -8 65 -16 145 -20
79 -4 133 -12 137 -19 4 -6 8 -22 8 -36 0 -36 26 -70 50 -65 29 6 40 14 40 31
0 8 7 28 15 43 l14 29 183 8 c101 4 257 8 348 9 324 3 436 7 410 15 -27 8 31
12 270 15 69 1 153 5 188 9 38 5 62 4 62 -2 0 -5 23 -7 53 -5 107 8 153 9 172
2 11 -3 29 -3 40 2 11 4 14 8 6 8 -8 1 -12 4 -9 7 4 3 17 0 29 -7 22 -11 132
-16 444 -19 62 0 85 -3 75 -10 -10 -7 9 -10 63 -10 44 0 77 -4 77 -10 0 -5 14
-10 30 -10 17 0 30 4 30 9 0 5 57 10 128 11 70 0 152 1 182 2 99 2 230 -7 209
-14 -10 -4 -19 -10 -19 -13 0 -8 413 -5 425 3 5 4 129 5 275 2 221 -4 737 9
845 21 17 2 32 0 35 -6 2 -5 22 -18 45 -28 82 -38 354 -18 406 29 12 11 25 13
41 9 12 -5 141 -7 285 -7 l262 1 21 -27 c41 -51 96 -64 185 -41 22 5 83 19
135 30 52 12 117 30 143 41 50 22 77 52 54 61 -9 4 -8 8 3 16 12 9 11 11 -7
11 -29 0 -54 10 -48 20 5 9 -26 24 -80 38 -22 6 -78 22 -125 36 -154 48 -215
44 -279 -15 -19 -18 -36 -20 -191 -21 -93 -1 -172 1 -176 4 -3 4 -18 2 -32 -3
-14 -5 -28 -6 -31 -1 -9 12 -171 6 -184 -7 -6 -6 -17 -11 -25 -11 -12 0 -12 3
-2 15 10 13 9 15 -11 14 -13 0 -127 0 -254 0 -126 1 -303 -4 -393 -10 -90 -6
-170 -8 -177 -5 -7 2 -15 3 -17 1 -2 -2 -80 -7 -173 -9 -94 -3 -235 -8 -315
-11 -390 -13 -678 -17 -1144 -16 -378 2 -511 -1 -516 -9 -5 -9 -13 -9 -26 -2
-25 13 -644 12 -644 -1 0 -5 -7 -4 -15 3 -11 9 -19 10 -28 1 -8 -6 -25 -8 -43
-3 -16 4 -49 6 -74 5 -59 -5 -81 -5 -163 0 -37 3 -70 1 -73 -4 -3 -5 -11 -6
-17 -2 -17 11 -39 12 -356 17 -163 3 -312 9 -331 14 -24 6 6 8 96 7 72 -1 186
1 254 4 67 3 124 4 126 1 17 -17 499 9 549 30 11 4 47 13 80 20 104 22 156 51
249 144 48 47 91 86 96 86 5 0 17 11 26 25 9 13 24 27 34 30 10 3 20 19 24 35
3 18 12 30 21 30 8 0 15 4 15 8 0 5 9 18 20 30 26 28 92 149 120 221 12 30 30
74 41 98 11 23 26 85 34 137 17 119 30 163 55 201 11 17 20 42 20 57 0 14 3
28 8 30 9 4 49 94 58 133 4 17 6 42 5 58 -1 15 2 27 8 27 13 0 68 189 76 266
4 37 48 156 79 214 8 14 17 41 21 60 4 19 18 59 31 88 13 29 24 55 24 58 0 19
148 298 183 347 52 71 160 165 235 205 98 51 223 87 342 98 25 2 63 6 85 9 22
2 104 7 183 11 l143 7 -10 -25 c-20 -52 68 -103 134 -78 16 6 64 16 108 21 43
5 104 21 135 35 31 15 71 32 87 39 45 20 220 38 291 30 49 -5 71 -3 98 10 20
10 36 22 36 27 0 23 -69 75 -107 81 -101 17 -288 7 -553 -29 -58 -7 -120 -11
-138 -8 -20 3 -39 0 -48 -7 -9 -7 -60 -13 -137 -15 -233 -7 -382 -15 -411 -25
-16 -5 -42 -9 -57 -9 -15 0 -30 -4 -33 -9 -3 -5 -26 -14 -51 -20 -48 -12 -178
-75 -208 -101 -9 -8 -35 -31 -56 -51 -21 -20 -43 -38 -48 -40 -10 -4 -83 -102
-83 -112 0 -3 -14 -21 -30 -39 -17 -18 -42 -58 -56 -88 -14 -30 -43 -89 -64
-131 -22 -42 -40 -85 -40 -96 0 -12 -7 -26 -15 -33 -8 -7 -15 -16 -15 -20 0
-4 -8 -25 -17 -46 -10 -22 -18 -46 -18 -54 -1 -8 -11 -36 -22 -61 -12 -25 -29
-73 -38 -105 -10 -33 -21 -68 -26 -79 -5 -11 -11 -39 -14 -62 -2 -23 -10 -61
-16 -85 -6 -24 -13 -59 -16 -78 -3 -19 -10 -41 -16 -48 -5 -7 -11 -25 -12 -41
-1 -15 -10 -45 -20 -67 -9 -21 -28 -64 -41 -94 -37 -84 -93 -275 -104 -353 -6
-38 -21 -92 -35 -119 -14 -27 -25 -55 -25 -61 0 -7 -7 -25 -16 -42 -9 -16 -26
-47 -36 -69 -11 -21 -40 -59 -64 -85 -24 -25 -44 -50 -44 -55 0 -9 -142 -151
-248 -248 -49 -46 -69 -58 -95 -58 -18 0 -37 -4 -42 -9 -6 -5 -41 -21 -80 -36
-74 -28 -118 -30 -370 -20 -128 5 -133 6 -205 6 -30 0 -84 1 -120 1 -36 0
-103 0 -150 -1 -96 -2 -322 9 -330 16 -3 3 -6 32 -7 66 -2 34 -3 71 -4 82 -1
25 -1 89 2 180 1 39 3 228 5 420 4 411 4 405 14 405 3 0 7 6 8 13 1 18 7 38
20 70 16 39 15 58 -8 110 -12 26 -20 65 -19 93 0 27 -2 138 -6 246 -4 131 -2
199 5 203 5 3 10 17 10 29 0 13 7 29 15 36 9 7 14 19 11 27 -3 7 1 13 8 13 32
0 49 70 60 245 3 47 -13 117 -35 158 -5 9 -6 17 -1 17 15 0 1 144 -19 183 -10
21 -19 40 -19 42 0 3 15 5 34 5 40 0 96 18 116 37 13 13 9 19 -34 57 -47 42
-49 44 -73 152 -23 102 -57 183 -86 201 -18 11 -48 12 -84 2z m-23 -1603 c0
-3 -4 -8 -10 -11 -5 -3 -10 -1 -10 4 0 6 5 11 10 11 6 0 10 -2 10 -4z m105
-1596 c3 -5 1 -10 -4 -10 -6 0 -11 5 -11 10 0 6 2 10 4 10 3 0 8 -4 11 -10z
m86 -4 l34 -15 -41 2 c-30 1 -40 5 -37 14 6 16 4 16 44 -1z m1427 -63 c-10 -2
-26 -2 -35 0 -10 3 -2 5 17 5 19 0 27 -2 18 -5z m130 0 c-15 -2 -42 -2 -60 0
-18 2 -6 4 27 4 33 0 48 -2 33 -4z m-618 -23 c0 -5 -15 -9 -32 -9 l-33 1 30 8
c17 4 31 8 33 9 1 0 2 -3 2 -9z m313 3 c-7 -2 -21 -2 -30 0 -10 3 -4 5 12 5
17 0 24 -2 18 -5z m-270 -10 c-7 -2 -19 -2 -25 0 -7 3 -2 5 12 5 14 0 19 -2
13 -5z m764 -9 c-3 -3 -12 -4 -19 -1 -8 3 -5 6 6 6 11 1 17 -2 13 -5z m150 0
c-3 -3 -12 -4 -19 -1 -8 3 -5 6 6 6 11 1 17 -2 13 -5z m-1174 -31 c-13 -2 -35
-2 -50 0 -16 2 -5 4 22 4 28 0 40 -2 28 -4z m70 0 c-7 -2 -19 -2 -25 0 -7 3
-2 5 12 5 14 0 19 -2 13 -5z m2137 -23 c0 -5 -2 -10 -4 -10 -3 0 -8 5 -11 10
-3 6 -1 10 4 10 6 0 11 -4 11 -10z"/>
<path d="M5200 3212 c-35 -28 -20 -48 67 -89 288 -132 314 -148 486 -301 68
-59 117 -114 156 -172 114 -168 155 -259 197 -437 25 -105 28 -135 27 -274 -2
-135 -6 -172 -32 -280 -16 -68 -48 -177 -69 -241 -38 -116 -40 -140 -8 -95 11
15 10 8 -4 -20 -28 -58 -25 -64 11 -23 17 19 26 25 20 14 -14 -29 -2 -38 22
-17 15 13 19 14 13 3 -5 -9 -2 -8 7 2 8 10 16 15 19 12 10 -9 70 95 87 151 9
30 20 57 24 61 4 4 7 18 7 30 0 13 5 26 11 29 5 4 9 17 8 28 -2 12 2 31 9 43
6 11 11 29 11 40 -1 10 5 72 12 137 9 82 10 120 3 125 -6 4 -11 32 -11 63 -1
185 -76 452 -175 616 -107 178 -342 399 -539 507 -72 39 -220 91 -289 101 -37
5 -50 3 -70 -13z"/>
<path d="M5270 3042 c-16 -5 -26 -16 -29 -32 -4 -31 -16 -39 -61 -38 -23 0
-52 -10 -78 -26 -49 -31 -126 -37 -136 -10 -4 10 -12 14 -22 10 -9 -4 -28 4
-46 19 -16 14 -39 25 -50 25 -11 0 -27 9 -36 19 -19 22 -62 37 -62 22 0 -5 5
-13 10 -16 6 -4 8 -11 5 -16 -4 -5 -2 -9 3 -9 5 0 12 -9 15 -20 3 -13 0 -20
-9 -20 -15 0 -75 -28 -84 -39 -14 -17 -91 -51 -111 -49 -18 2 -25 -3 -27 -19
-3 -22 2 -25 43 -25 38 0 48 4 83 38 44 43 121 84 158 84 15 0 24 -3 21 -6 -3
-4 -2 -15 4 -25 8 -16 21 -19 73 -19 35 0 77 -5 95 -11 38 -13 87 3 96 32 5
16 16 19 73 19 69 0 119 20 106 42 -4 6 0 14 7 19 21 13 49 11 49 -5 0 -8 8
-12 23 -9 19 4 24 -3 40 -52 10 -31 17 -58 15 -59 -42 -31 -69 -45 -96 -51
-39 -8 -52 -30 -52 -87 1 -52 15 -73 64 -93 20 -8 36 -21 36 -27 0 -7 14 -27
31 -45 37 -37 36 -39 -43 -126 -33 -37 -52 -49 -83 -54 -22 -3 -42 -9 -45 -13
-3 -4 -20 -15 -37 -24 -18 -9 -33 -20 -33 -24 0 -4 16 -23 35 -42 19 -19 35
-39 35 -45 0 -9 18 -50 53 -119 14 -28 -60 -91 -133 -112 -30 -9 -59 -20 -64
-25 -6 -5 -20 -9 -33 -9 -14 0 -23 -6 -23 -15 0 -9 -7 -18 -16 -22 -20 -7 -34
-45 -28 -70 3 -11 19 -27 35 -37 29 -17 39 -49 19 -61 -6 -4 -8 -11 -5 -16 15
-23 -40 -6 -66 22 -22 24 -35 30 -61 27 -30 -3 -36 2 -60 42 -16 25 -37 57
-49 71 -11 14 -22 34 -23 45 -2 10 -15 23 -29 28 -39 14 -97 -7 -169 -62 -59
-44 -63 -51 -73 -102 l-11 -55 -18 45 c-10 25 -20 70 -23 100 -5 60 -31 140
-44 140 -5 0 -9 11 -9 24 0 20 -10 27 -57 45 -32 12 -83 23 -114 26 -65 5 -92
-13 -88 -62 1 -15 1 -41 1 -57 -2 -24 -5 -28 -26 -24 -13 3 -52 1 -86 -4 -84
-11 -90 -3 -100 121 -7 96 -26 171 -42 171 -4 0 -8 -9 -8 -19 0 -11 -8 -21
-17 -23 -20 -4 -26 -41 -26 -168 1 -147 33 -215 105 -226 21 -4 41 -11 45 -17
7 -12 -29 -44 -111 -100 -72 -49 -100 -99 -91 -165 l6 -47 -35 39 c-39 42 -47
87 -25 156 27 89 28 101 8 95 -12 -4 -19 -2 -19 7 0 7 -10 18 -22 23 -17 8
-27 27 -41 79 -19 74 -19 75 23 171 34 79 33 96 -15 188 -25 48 -42 95 -40
107 6 30 47 79 65 77 8 -1 15 6 15 16 0 9 13 28 28 42 35 33 34 61 -3 105 -24
28 -32 32 -39 21 -6 -10 -4 -19 6 -29 24 -25 10 -82 -30 -117 -45 -40 -80
-103 -79 -142 1 -18 20 -65 43 -105 l41 -73 -26 -63 c-15 -35 -30 -92 -35
-128 -10 -65 -9 -66 25 -112 48 -66 51 -69 66 -74 10 -4 10 -8 2 -19 -6 -8
-16 -35 -22 -61 -13 -50 -2 -139 20 -165 6 -8 11 -32 10 -53 -1 -22 1 -40 4
-40 10 0 34 29 34 42 0 8 4 7 11 -5 5 -9 16 -17 23 -17 8 0 17 -12 21 -27 5
-21 1 -31 -16 -43 -18 -14 -20 -20 -10 -38 7 -12 16 -22 21 -22 18 0 60 23 61
34 3 31 -3 98 -13 159 -10 61 -9 73 6 102 10 19 32 39 48 46 47 19 107 67 128
102 37 60 24 85 -49 91 -62 6 -77 16 -86 59 -4 18 -15 41 -25 52 -15 18 -16
31 -9 109 5 49 11 91 14 94 3 3 5 -28 5 -69 1 -45 6 -84 15 -99 8 -14 14 -35
15 -46 0 -12 9 -32 19 -45 18 -22 21 -23 55 -11 20 8 61 15 91 17 34 1 67 11
90 25 34 21 36 25 31 59 -9 52 0 58 74 51 64 -5 64 -5 93 -52 24 -39 30 -61
33 -120 4 -77 46 -198 68 -198 6 0 16 -10 21 -22 7 -16 20 -24 43 -26 l32 -3
-4 43 c-9 91 1 112 76 178 38 33 75 60 83 60 7 0 27 -24 44 -54 16 -30 41 -62
53 -70 20 -14 23 -25 23 -76 0 -52 4 -64 36 -107 19 -26 43 -60 52 -75 17 -27
50 -37 61 -19 10 16 -15 75 -43 100 -37 34 -60 71 -54 87 8 21 25 16 56 -15
39 -40 82 -44 130 -14 40 25 61 64 52 94 -3 10 -24 32 -46 49 -44 36 -48 49
-19 75 26 23 45 8 35 -26 -8 -23 -8 -23 -16 -4 l-9 20 3 -20 c3 -28 53 -34 61
-7 4 11 5 25 4 32 -2 6 16 19 38 28 23 9 49 23 57 30 14 12 19 12 32 -2 20
-19 49 -21 63 -3 13 15 4 59 -14 70 -10 6 -8 17 7 52 22 51 19 71 -17 115 -21
24 -23 33 -14 50 16 30 5 50 -26 50 -37 0 -25 25 14 27 28 1 36 -4 58 -43 24
-41 46 -55 58 -36 3 5 -3 30 -13 57 l-18 48 33 64 c19 35 34 71 34 79 0 8 4
14 9 14 16 0 23 -19 13 -37 -7 -11 -3 -30 14 -64 13 -26 24 -54 24 -62 0 -8
-18 -30 -40 -48 -46 -38 -56 -60 -40 -89 17 -32 48 -25 58 12 5 19 15 32 26
34 47 7 81 87 51 118 -21 21 -24 84 -5 96 20 12 -5 40 -36 40 -20 0 -24 5 -24
31 0 60 -61 126 -132 144 -23 6 -28 13 -28 36 0 24 4 29 24 29 27 0 42 15 49
50 4 25 4 25 12 3 4 -13 16 -23 26 -23 12 0 26 -15 39 -39 21 -43 54 -71 81
-71 12 0 16 6 12 20 -3 11 -9 20 -13 20 -4 0 -14 15 -21 33 -7 17 -24 43 -36
57 -13 14 -23 37 -23 53 0 36 -25 96 -44 103 -9 3 -14 18 -14 35 1 16 -2 32
-6 36 -10 10 -126 13 -156 5z"/>
<path d="M1547 3033 c-4 -3 -2 -12 4 -19 8 -10 4 -20 -15 -39 -15 -15 -24 -30
-21 -35 3 -5 -3 -26 -14 -47 -11 -22 -29 -96 -41 -173 -31 -201 -60 -350 -77
-395 -27 -73 -27 -90 1 -113 42 -32 90 -35 261 -13 266 34 560 52 840 50 273
-2 327 5 362 43 12 13 14 21 5 30 -13 13 -808 12 -927 -2 -44 -5 -98 -11 -120
-14 -22 -2 -55 -7 -74 -10 -21 -3 -41 0 -54 9 -13 9 -44 15 -76 15 l-54 0 7
80 c9 99 11 111 40 235 14 55 36 150 50 210 14 61 29 120 32 131 9 33 -30 64
-81 64 -23 0 -45 -3 -48 -7z"/>
<path d="M4295 2994 c-100 -21 -178 -50 -195 -72 -25 -32 -25 -49 0 -62 15 -8
30 -8 56 0 41 14 49 10 31 -13 -17 -24 -103 -31 -130 -12 -12 8 -30 15 -40 15
-14 0 -17 -5 -11 -22 15 -48 35 -54 142 -41 46 5 58 12 98 53 56 59 89 68 123
34 20 -21 33 -24 93 -24 87 0 89 20 2 35 -40 7 -59 15 -60 25 -1 8 -2 25 -3
38 -1 16 -11 27 -36 38 -19 7 -38 13 -42 13 -4 -1 -17 -3 -28 -5z m29 -50 c29
-11 16 -19 -26 -16 -25 2 -66 -5 -98 -17 -30 -11 -57 -18 -59 -15 -7 6 0 9 64
31 66 22 95 26 119 17z"/>
<path d="M4585 2995 c-5 -2 -23 -6 -38 -9 -24 -6 -67 -55 -67 -78 0 -16 33 -7
62 17 16 14 37 25 47 25 9 0 26 7 37 15 16 13 17 16 4 25 -15 10 -27 11 -45 5z"/>
<path d="M3950 2935 c-14 -8 -35 -20 -48 -26 -20 -11 -23 -19 -20 -53 l4 -41
-58 -27 c-36 -17 -58 -33 -58 -43 0 -19 12 -16 98 17 38 15 63 33 87 65 18 24
37 43 42 42 13 -3 37 47 30 64 -8 21 -44 22 -77 2z m30 -28 c0 -2 -13 -16 -30
-32 -16 -16 -30 -24 -30 -17 0 13 39 52 52 52 4 0 8 -1 8 -3z"/>
<path d="M1113 2900 c-15 -17 -50 -46 -78 -64 -53 -36 -67 -50 -131 -136 -71
-96 -77 -113 -76 -227 1 -120 14 -148 85 -182 48 -23 137 -28 196 -11 32 9 37
7 62 -23 15 -17 35 -49 45 -70 17 -36 20 -38 58 -35 38 3 41 5 44 35 2 18 -2
38 -8 45 -5 7 -25 33 -44 58 l-33 45 43 50 c24 27 44 57 44 65 0 9 4 20 10 26
12 12 21 152 13 222 -4 40 -16 69 -44 110 -22 31 -39 62 -39 68 0 23 -47 54
-82 54 -28 0 -43 -7 -65 -30z m77 -91 c0 -5 13 -27 30 -47 78 -98 79 -207 2
-309 -32 -43 -54 -42 -75 3 -15 31 -21 35 -49 32 -23 -2 -37 -11 -47 -29 -13
-23 -12 -28 5 -52 10 -15 26 -27 34 -27 13 0 13 -1 0 -10 -8 -5 -38 -10 -67
-10 -102 0 -135 69 -94 193 37 109 114 214 186 251 34 18 75 21 75 5z"/>
<path d="M1948 2893 c-9 -10 -50 -80 -92 -156 -42 -76 -92 -162 -111 -190 -19
-28 -35 -60 -35 -69 0 -10 -11 -25 -25 -34 -14 -9 -25 -24 -25 -34 0 -22 23
-42 42 -35 13 5 68 92 81 127 4 11 16 17 34 16 15 0 70 9 121 21 51 12 98 19
104 15 6 -4 21 -30 33 -58 36 -79 81 -136 109 -136 24 0 46 32 27 38 -6 2 -11
8 -11 14 0 5 -11 24 -24 41 -34 45 -78 139 -111 232 -15 44 -31 85 -36 90 -4
6 -11 35 -15 65 -9 70 -34 90 -66 53z m50 -190 c18 -56 26 -93 20 -93 -6 0
-19 -7 -29 -16 -17 -15 -155 -41 -165 -31 -3 3 7 25 23 49 16 24 47 78 69 120
21 42 42 74 45 70 4 -4 20 -49 37 -99z"/>
<path d="M2439 2894 c-115 -32 -116 -32 -116 -64 0 -16 6 -31 14 -34 15 -6 17
-62 4 -115 -5 -20 -15 -67 -22 -106 -6 -38 -16 -78 -21 -89 -7 -13 -6 -21 1
-26 7 -4 11 -11 10 -16 -1 -5 -1 -24 0 -41 1 -28 5 -33 25 -33 29 0 36 16 36
78 0 83 47 374 61 383 20 12 104 29 144 29 44 0 63 -8 76 -31 21 -40 -37 -107
-131 -149 -56 -25 -70 -36 -70 -57 0 -21 37 -24 79 -7 38 15 43 15 78 -3 33
-16 39 -24 44 -61 4 -33 1 -47 -14 -63 -30 -32 -141 -81 -189 -83 -80 -4 -72
-66 9 -66 80 0 212 80 248 151 18 34 19 82 4 112 -14 27 -45 57 -58 57 -25 0
-20 25 12 58 66 70 74 116 28 163 -28 28 -32 29 -118 27 -49 -1 -110 -7 -134
-14z"/>
<path d="M3726 2669 c3 -5 12 -9 21 -9 19 0 9 13 -12 16 -8 1 -13 -2 -9 -7z"/>
<path d="M3567 2070 c-13 -120 19 -530 42 -538 6 -2 9 -8 6 -12 -9 -15 6 -60
18 -53 6 3 7 1 3 -5 -8 -14 54 -174 97 -250 17 -31 32 -62 33 -69 3 -18 127
-173 175 -218 53 -49 35 -25 -53 74 -37 41 -65 77 -63 80 3 2 14 -8 25 -22 29
-36 177 -157 184 -150 3 4 6 2 6 -4 0 -5 7 -10 15 -10 8 0 13 3 10 5 -3 3 1
12 8 20 6 9 7 13 1 9 -6 -3 -31 14 -55 39 -28 29 -37 43 -24 38 14 -5 10 3
-13 25 -19 17 -38 29 -43 25 -5 -3 -9 -2 -8 3 4 20 -2 33 -15 33 -8 0 -24 19
-36 43 -12 23 -30 51 -40 62 -10 11 -33 52 -51 90 -18 39 -36 73 -41 76 -5 3
-10 19 -12 35 -5 37 -16 65 -32 84 -6 8 -17 47 -23 85 -22 133 -39 210 -41
190 -3 -27 -21 69 -23 122 -1 23 -5 39 -8 37 -8 -5 -19 51 -28 150 l-7 71 -7
-65z m20 -202 c-3 -8 -6 -5 -6 6 -1 11 2 17 5 13 3 -3 4 -12 1 -19z"/>
<path d="M3542 2005 c0 -16 2 -22 5 -12 2 9 2 23 0 30 -3 6 -5 -1 -5 -18z"/>
<path d="M5301 1904 c-33 -24 -26 -61 21 -117 25 -30 44 -64 47 -86 5 -31 11
-36 35 -39 35 -4 46 10 46 65 0 36 -7 50 -44 92 -24 27 -47 59 -50 69 -9 28
-30 33 -55 16z"/>
<path d="M5149 1627 c-53 -35 -65 -48 -67 -74 -4 -37 43 -97 83 -107 29 -8 79
15 90 41 7 14 10 11 14 -17 6 -31 9 -35 35 -33 37 3 39 6 40 51 1 24 8 43 21
54 15 13 17 19 8 29 -19 19 -62 2 -83 -34 l-20 -32 7 34 6 35 -38 -42 c-35
-40 -65 -54 -65 -32 0 6 -6 10 -14 10 -7 0 -19 6 -25 14 -10 12 -7 18 17 30
15 8 34 21 41 30 7 8 24 13 41 11 29 -4 40 12 40 58 0 33 -61 21 -131 -26z"/>
<path d="M4815 1628 c24 -87 102 -193 170 -233 64 -38 255 -57 255 -26 0 14
-32 36 -54 38 -23 3 -79 12 -113 19 -13 2 -23 10 -23 17 0 7 -16 21 -35 30
-19 9 -35 21 -35 26 0 5 -9 13 -20 16 -11 3 -23 17 -26 30 -7 29 -87 105 -109
105 -12 0 -15 -6 -10 -22z"/>
<path d="M5491 1572 c-9 -17 -6 -26 17 -51 15 -17 41 -48 59 -69 29 -35 39
-40 99 -49 61 -9 69 -8 87 10 13 13 16 22 8 30 -7 7 -2 16 19 29 30 18 39 41
20 53 -6 4 -22 -1 -36 -10 -24 -16 -26 -15 -60 14 -36 32 -50 37 -124 44 -25
3 -53 8 -62 12 -11 4 -20 0 -27 -13z m150 -64 c3 -5 12 -6 20 -3 9 3 23 -3 33
-14 18 -20 18 -21 -19 -38 -32 -15 -38 -16 -45 -3 -5 9 -20 28 -34 43 -14 15
-26 30 -26 32 0 8 65 -8 71 -17z"/>
<path d="M5840 1530 c0 -23 26 -69 50 -87 12 -9 13 -17 2 -45 -16 -45 -15 -58
2 -58 19 0 46 39 46 66 0 11 -12 43 -26 70 -36 68 -74 96 -74 54z"/>
<path d="M3944 1417 l-36 -33 13 -78 c15 -87 38 -117 83 -109 31 6 37 20 43
113 4 59 2 83 -11 108 -21 41 -46 41 -92 -1z m56 -57 c8 0 3 -84 -7 -110 -8
-22 -21 24 -22 81 -1 45 11 76 17 45 2 -9 7 -16 12 -16z"/>
<path d="M5292 1394 c-27 -19 -20 -29 23 -38 35 -7 77 16 60 33 -20 19 -60 22
-83 5z"/>
<path d="M5405 1339 c-28 -11 -76 -42 -107 -68 -42 -36 -76 -54 -127 -70 -85
-26 -95 -40 -89 -125 4 -49 1 -66 -15 -89 -19 -27 -19 -29 -1 -49 16 -17 27
-20 76 -15 31 3 82 17 114 31 59 27 94 33 94 16 0 -5 8 -10 18 -10 10 0 23 -5
29 -11 12 -12 6 -49 -8 -49 -4 0 -7 -9 -6 -20 1 -11 7 -20 13 -20 7 0 14 -6
17 -12 3 -9 10 -7 23 8 11 11 31 24 46 27 31 8 116 76 117 94 1 7 19 24 40 39
45 29 81 101 81 159 0 20 -9 53 -20 75 -11 22 -20 46 -20 54 0 25 -16 27 -61
6 -54 -24 -94 -27 -85 -5 8 21 -28 55 -56 54 -13 0 -46 -9 -73 -20z m107 -69
c35 -33 69 -38 88 -15 7 8 16 12 21 9 5 -3 18 0 29 6 19 10 20 8 20 -64 0 -41
-4 -78 -10 -81 -5 -3 -10 -15 -10 -26 0 -10 -4 -19 -10 -19 -5 0 -45 -36 -88
-80 -44 -44 -84 -80 -90 -80 -14 0 -32 33 -32 59 0 30 -74 38 -151 17 -32 -10
-80 -18 -104 -20 -38 -2 -45 0 -39 13 4 9 7 45 8 81 l1 64 41 7 c58 10 102 31
157 73 26 20 54 36 62 36 7 0 27 11 42 25 15 13 29 25 30 25 1 0 17 -13 35
-30z"/>
<path d="M5803 1047 c-46 -41 -127 -93 -208 -135 -33 -16 -84 -46 -114 -65
-31 -21 -87 -45 -135 -57 -44 -12 -116 -35 -159 -51 -104 -37 -234 -59 -357
-59 -91 0 -101 -2 -98 -17 2 -15 -4 -18 -34 -17 -21 1 -35 -3 -32 -7 3 -5 -3
-9 -13 -9 -41 -1 15 -18 107 -33 112 -19 259 -27 266 -15 3 4 16 5 28 2 20 -5
95 5 176 23 24 5 25 5 5 -11 -23 -18 -28 -19 110 24 144 45 247 111 261 165 3
14 10 25 15 25 5 0 9 6 9 14 0 21 46 54 94 68 49 14 156 115 156 147 0 11 -9
25 -20 31 -16 9 -26 5 -57 -23z"/>
<path d="M4050 874 c0 -1 6 -7 14 -13 10 -9 15 -8 19 2 3 8 -3 13 -14 13 -11
0 -19 -1 -19 -2z"/>
<path d="M4103 849 c-1 -11 3 -19 8 -19 6 0 7 6 3 13 -5 8 -2 7 9 -2 18 -14
33 -10 23 7 -12 19 -42 20 -43 1z"/>
<path d="M4186 811 c-4 -5 -2 -12 3 -15 5 -4 12 -2 15 3 4 5 2 12 -3 15 -5 4
-12 2 -15 -3z"/>
<path d="M4297 763 c-4 -6 0 -16 8 -23 11 -9 15 -9 15 -1 0 7 5 9 12 5 7 -4 8
-3 4 5 -4 6 -11 9 -16 6 -4 -3 -10 0 -12 7 -3 8 -6 9 -11 1z"/>
<path d="M4430 721 c0 -11 61 -33 69 -25 9 8 -30 34 -51 34 -10 0 -18 -4 -18
-9z"/>
<path d="M4510 705 c0 -8 0 -18 0 -22 -1 -12 34 -12 47 -1 11 9 10 13 -4 24
-24 18 -43 17 -43 -1z"/>
<path d="M4564 675 c-16 -12 -17 -14 -3 -15 9 0 19 7 23 15 7 19 5 19 -20 0z"/>
<path d="M4622 673 c-15 -6 -6 -23 14 -23 8 0 14 7 14 15 0 15 -6 17 -28 8z"/>
<path d="M4670 670 c0 -13 18 -22 24 -11 3 5 -1 11 -9 15 -8 3 -15 1 -15 -4z"/>
</g>
</svg>
